<svg width="112" height="44" viewBox="0 0 112 44" fill="none" xmlns="http://www.w3.org/2000/svg">
<path d="M39 7.5C39.2761 7.5 39.5 7.27614 39.5 7C39.5 6.72386 39.2761 6.5 39 6.5C38.7239 6.5 38.5 6.72386 38.5 7C38.5 7.27614 38.7239 7.5 39 7.5Z" fill="#F1BC19"/>
<path d="M25 44C35.4934 44 44 35.4934 44 25C44 14.5066 35.4934 6 25 6C14.5066 6 6 14.5066 6 25C6 35.4934 14.5066 44 25 44Z" fill="#FBCD59"/>
<path d="M42 10C43.1046 10 44 9.10457 44 8C44 6.89543 43.1046 6 42 6C40.8954 6 40 6.89543 40 8C40 9.10457 40.8954 10 42 10Z" fill="#F1BC19"/>
<path d="M7 14C7.55228 14 8 13.5523 8 13C8 12.4477 7.55228 12 7 12C6.44772 12 6 12.4477 6 13C6 13.5523 6.44772 14 7 14Z" fill="#EE3E54"/>
<path d="M39 39.5C39.5523 39.5 40 39.0523 40 38.5C40 37.9477 39.5523 37.5 39 37.5C38.4477 37.5 38 37.9477 38 38.5C38 39.0523 38.4477 39.5 39 39.5Z" fill="#FBCD59"/>
<path d="M8.5 41C9.60457 41 10.5 40.1046 10.5 39C10.5 37.8954 9.60457 37 8.5 37C7.39543 37 6.5 37.8954 6.5 39C6.5 40.1046 7.39543 41 8.5 41Z" fill="#FBCD59"/>
<path d="M12 42.5C12.5523 42.5 13 42.0523 13 41.5C13 40.9477 12.5523 40.5 12 40.5C11.4477 40.5 11 40.9477 11 41.5C11 42.0523 11.4477 42.5 12 42.5Z" fill="#EE3E54"/>
<path d="M23.2415 42.5001C23.9272 42.5001 24.483 41.9443 24.483 41.2586C24.483 40.5729 23.9272 40.0171 23.2415 40.0171C22.5558 40.0171 22 40.5729 22 41.2586C22 41.9443 22.5558 42.5001 23.2415 42.5001Z" fill="white"/>
<path d="M8 24.5C8.27614 24.5 8.5 24.2761 8.5 24C8.5 23.7239 8.27614 23.5 8 23.5C7.72386 23.5 7.5 23.7239 7.5 24C7.5 24.2761 7.72386 24.5 8 24.5Z" fill="white"/>
<path d="M43 16C43.2761 16 43.5 15.7761 43.5 15.5C43.5 15.2239 43.2761 15 43 15C42.7239 15 42.5 15.2239 42.5 15.5C42.5 15.7761 42.7239 16 43 16Z" fill="#F1BC19"/>
<path d="M41.5 27.5625C42.0523 27.5625 42.5 27.1148 42.5 26.5625C42.5 26.0102 42.0523 25.5625 41.5 25.5625C40.9477 25.5625 40.5 26.0102 40.5 26.5625C40.5 27.1148 40.9477 27.5625 41.5 27.5625Z" fill="white"/>
<path d="M25.2206 37.1009C20.5706 37.1004 16.2916 33.8379 14.5721 28.9819L14.4721 28.6999L14.1776 28.7549C14.1186 28.7659 14.0581 28.7714 13.9981 28.7714C13.4336 28.7714 12.8496 28.2959 12.8496 27.4999C12.8496 18.7909 17.7196 15.2494 18.6956 14.6279C19.7806 13.8889 20.9671 13.3819 22.2321 13.1139C22.9006 12.9724 23.5861 12.9004 24.2691 12.9004C24.7071 12.9004 25.1511 12.9299 25.5886 12.9884L25.7636 13.0184C31.4371 13.9579 34.2921 17.4199 35.6876 20.1594C35.9041 20.5834 35.7336 21.3004 35.3506 21.5799L35.1551 21.7224L35.2191 21.9554C35.2901 22.2139 35.3566 22.4754 35.4131 22.7419C36.8006 29.2964 33.1466 35.6419 27.2666 36.8869C26.5936 37.0289 25.9056 37.1009 25.2206 37.1009C25.2211 37.1009 25.2211 37.1009 25.2206 37.1009Z" fill="#F1BC19"/>
<path d="M24.27 13.2498C24.687 13.2498 25.1095 13.2778 25.527 13.3328C25.5755 13.3418 25.636 13.3518 25.7075 13.3638C31.2365 14.2793 34.0175 17.6508 35.3765 20.3183C35.5145 20.5888 35.3885 21.1193 35.1445 21.2973L34.754 21.5823L34.882 22.0483C34.962 22.3403 35.022 22.5838 35.071 22.8148C36.419 29.1798 32.886 35.3393 27.195 36.5443C26.546 36.6818 25.8815 36.7518 25.2215 36.7518C20.7195 36.7518 16.5725 33.5828 14.903 28.8663L14.703 28.3018L14.1145 28.4118C14.077 28.4188 14.038 28.4223 13.999 28.4223C13.6675 28.4223 13.2 28.1363 13.2 27.5008C13.2 18.9748 17.935 15.5283 18.902 14.9118C19.94 14.2048 21.085 13.7153 22.305 13.4568C22.95 13.3193 23.6115 13.2498 24.27 13.2498ZM24.27 12.5498C23.5715 12.5498 22.866 12.6213 22.16 12.7708C20.82 13.0548 19.5925 13.5933 18.508 14.3323C17.363 15.0618 12.5 18.6768 12.5 27.4998C12.5 28.4993 13.249 29.1213 13.999 29.1213C14.0805 29.1213 14.1625 29.1138 14.243 29.0988C16.014 34.1013 20.449 37.4508 25.2215 37.4508C25.923 37.4508 26.6315 37.3783 27.34 37.2283C33.4185 35.9408 37.1865 29.4223 35.756 22.6688C35.698 22.3953 35.63 22.1273 35.557 21.8618C36.0755 21.4838 36.293 20.5748 36 19.9998C32.6875 13.4998 26.5625 12.8123 25.6355 12.6408C25.185 12.5808 24.729 12.5498 24.27 12.5498Z" fill="#472B29"/>
<path d="M20.5 25.9976C22.433 25.9976 24 24.4306 24 22.4976C24 20.5646 22.433 18.9976 20.5 18.9976C18.567 18.9976 17 20.5646 17 22.4976C17 24.4306 18.567 25.9976 20.5 25.9976Z" fill="#472B29"/>
<path d="M19.25 24.4976C19.6642 24.4976 20 24.1618 20 23.7476C20 23.3333 19.6642 22.9976 19.25 22.9976C18.8358 22.9976 18.5 23.3333 18.5 23.7476C18.5 24.1618 18.8358 24.4976 19.25 24.4976Z" fill="white"/>
<path d="M21 22.9976C21.8284 22.9976 22.5 22.326 22.5 21.4976C22.5 20.6691 21.8284 19.9976 21 19.9976C20.1716 19.9976 19.5 20.6691 19.5 21.4976C19.5 22.326 20.1716 22.9976 21 22.9976Z" fill="white"/>
<path d="M31.25 21.4976C33.0449 21.4976 34.5 20.0425 34.5 18.2476C34.5 16.4526 33.0449 14.9976 31.25 14.9976C29.4551 14.9976 28 16.4526 28 18.2476C28 20.0425 29.4551 21.4976 31.25 21.4976Z" fill="#472B29"/>
<path d="M30.25 20.4976C30.6642 20.4976 31 20.1618 31 19.7476C31 19.3333 30.6642 18.9976 30.25 18.9976C29.8358 18.9976 29.5 19.3333 29.5 19.7476C29.5 20.1618 29.8358 20.4976 30.25 20.4976Z" fill="white"/>
<path d="M32 18.9976C32.8284 18.9976 33.5 18.326 33.5 17.4976C33.5 16.6691 32.8284 15.9976 32 15.9976C31.1716 15.9976 30.5 16.6691 30.5 17.4976C30.5 18.326 31.1716 18.9976 32 18.9976Z" fill="white"/>
<path d="M23.5003 30C23.5003 30 20.5628 24.25 26.0003 21C30.6878 18.4375 33.9578 22.515 34.5003 24C35.6878 27.25 33.0003 28.4375 31.3128 25.625C30.0003 23.4375 28.4588 22.925 27.5003 23.5C26.5628 24.0625 26.5628 26.5625 26.9378 28.1875C27.5628 30.6875 25.1253 32.3125 23.5003 30Z" fill="#F1BC19"/>
<path d="M25.2768 31.3614C24.6498 31.3614 23.9253 31.0399 23.2953 30.1434C23.2883 30.1339 23.2828 30.1239 23.2773 30.1134C23.2468 30.0539 20.2978 24.1164 25.8713 20.7849C27.6068 19.8364 29.3048 19.6679 30.9308 20.2799C32.9113 21.0254 34.3473 22.8534 34.7343 23.9134C35.3983 25.7314 34.8898 26.9299 34.0903 27.3114C33.2958 27.6909 32.0603 27.3579 31.0978 25.7529C29.8418 23.6599 28.4493 23.2199 27.6283 23.7134C26.8908 24.1559 26.7843 26.4104 27.1808 28.1304C27.5718 29.6949 26.8548 30.8194 26.0223 31.1999C25.8023 31.3009 25.5488 31.3614 25.2768 31.3614ZM23.7148 29.8709C24.3308 30.7389 25.1148 31.0654 25.8143 30.7459C26.4648 30.4484 27.0178 29.5399 26.6948 28.2479C26.3108 26.5834 26.2678 23.9474 27.3718 23.2854C28.4073 22.6639 30.0938 23.1074 31.5273 25.4959C32.3238 26.8234 33.3038 27.1339 33.8758 26.8604C34.4703 26.5764 34.8223 25.6084 34.2653 24.0854C33.9868 23.3229 32.7623 21.5039 30.7548 20.7479C29.2723 20.1894 27.7128 20.3479 26.1198 21.2189C21.0363 24.2579 23.5213 29.4834 23.7148 29.8709Z" fill="#472B29"/>
<path d="M29.0787 24.5812C30.1075 23.9872 30.6468 22.9953 30.2833 22.3656C29.9198 21.7359 28.791 21.707 27.7622 22.301C26.7334 22.8949 26.1941 23.8869 26.5577 24.5166C26.9212 25.1463 28.0499 25.1752 29.0787 24.5812Z" fill="#472B29"/>
<path d="M29.7494 25.8913C29.7494 25.8913 29.6264 26.9538 28.4994 26.5788C27.3724 26.2038 27.6034 27.3913 28.3744 27.5163C29.1454 27.6413 30.2234 27.5833 30.5014 26.3913C30.7494 25.3288 29.8089 25.5163 29.7494 25.8913Z" fill="#472B29"/>
<path d="M28.7428 27.6536C28.6058 27.6536 28.4743 27.6431 28.3548 27.6236C27.9693 27.5611 27.7143 27.2741 27.6323 27.0171C27.5678 26.8166 27.6028 26.6241 27.7263 26.5026C27.8398 26.3901 28.0738 26.2891 28.5398 26.4441C28.8548 26.5491 29.1098 26.5416 29.2963 26.4231C29.5788 26.2431 29.6258 25.8646 29.6263 25.8606L29.6268 25.8556C29.6523 25.6961 29.7838 25.5566 29.9708 25.4911C30.1653 25.4226 30.3683 25.4561 30.5018 25.5776C30.6243 25.6896 30.7448 25.9246 30.6233 26.4056C30.3858 27.3471 29.4763 27.6536 28.7428 27.6536ZM28.1133 26.6146C28.0188 26.6146 27.9458 26.6366 27.9018 26.6801C27.8228 26.7581 27.8533 26.8886 27.8703 26.9406C27.9293 27.1251 28.1143 27.3311 28.3953 27.3766C29.0633 27.4846 30.1403 27.2986 30.3813 26.3446C30.4528 26.0626 30.4353 25.8556 30.3328 25.7621C30.2558 25.6911 30.1368 25.6981 30.0533 25.7271C29.9573 25.7611 29.8853 25.8276 29.8738 25.8931C29.8678 25.9416 29.7998 26.3986 29.4303 26.6336C29.1773 26.7951 28.8503 26.8106 28.4608 26.6811C28.3263 26.6366 28.2088 26.6146 28.1133 26.6146Z" fill="#472B29"/>
<path d="M28.8809 26.6404C28.9014 27.0689 29.4884 27.1779 29.5229 26.6029C29.5279 26.5214 29.5294 26.4489 29.5299 26.3794C29.4004 26.5339 29.1984 26.6589 28.8809 26.6404Z" fill="white"/>
<path d="M28.5003 26.5624C28.2473 26.4784 28.0633 26.4729 27.9383 26.5169C27.9383 26.5194 27.9383 26.5224 27.9378 26.5249C27.9223 26.9689 28.4973 27.0999 28.5733 26.5824C28.5488 26.5749 28.5263 26.5709 28.5003 26.5624Z" fill="white"/>
<path d="M30.2765 25.5965C30.0585 25.5335 29.7815 25.677 29.7505 25.875C29.7505 25.875 29.7345 26.004 29.668 26.1555C29.8025 26.4435 30.243 26.458 30.273 25.962C30.2815 25.8205 30.281 25.703 30.2765 25.5965Z" fill="white"/>
<path d="M16.4998 20.247C16.4513 20.247 16.4033 20.233 16.3608 20.2045C16.2463 20.1275 16.2158 19.9735 16.2918 19.859C16.3348 19.7945 17.3838 18.271 20.9308 17.2575C22.2933 16.803 22.7723 15.894 22.7763 15.885C22.8393 15.763 22.9888 15.713 23.1123 15.7755C23.2348 15.8375 23.2848 15.987 23.2233 16.11C23.2008 16.1545 22.6588 17.2085 21.0788 17.7355C17.7213 18.695 16.7168 20.1235 16.7073 20.138C16.6583 20.2085 16.5798 20.247 16.4998 20.247Z" fill="#472B29"/>
<path d="M31.0623 15.0606C31.0308 15.0606 30.9983 15.0546 30.9673 15.0416C30.0398 14.6596 28.8618 14.8456 28.0823 14.9686L27.9128 14.9951C27.0678 15.1256 26.0583 14.9391 26.0163 14.9311C25.8808 14.9056 25.7913 14.7751 25.8168 14.6396C25.8418 14.5041 25.9703 14.4136 26.1083 14.4401C26.1183 14.4416 27.0773 14.6181 27.8368 14.5011L28.0048 14.4751C28.8393 14.3436 30.1018 14.1446 31.1578 14.5796C31.2853 14.6321 31.3463 14.7781 31.2933 14.9061C31.2538 15.0021 31.1603 15.0601 31.0623 15.0606Z" fill="#472B29"/>
<path d="M14.1566 28.938C14.1281 28.938 14.1106 28.937 14.1066 28.9365C13.9691 28.9265 13.8661 28.8065 13.8756 28.669C13.8861 28.5315 14.0186 28.4275 14.1416 28.438C14.1641 28.44 14.5761 28.457 14.9381 28.107C15.3271 27.731 15.5216 27.0475 15.5001 26.131C15.4971 25.993 15.6061 25.8785 15.7441 25.8755C15.8966 25.8725 15.9966 25.9815 16.0001 26.1195C16.0251 27.2025 15.7811 27.9955 15.2746 28.477C14.8271 28.902 14.3166 28.938 14.1566 28.938Z" fill="#472B29"/>
<path d="M35.0628 22.0628C34.9553 22.0628 34.8558 21.9928 34.8233 21.8843C34.6448 21.2893 34.4038 20.8043 34.4013 20.7993C34.3398 20.6758 34.3898 20.5258 34.5133 20.4638C34.6373 20.4023 34.7868 20.4523 34.8488 20.5758C34.8593 20.5968 35.1103 21.1023 35.3018 21.7408C35.3418 21.8728 35.2668 22.0123 35.1343 22.0523C35.1108 22.0593 35.0868 22.0628 35.0628 22.0628Z" fill="#472B29"/>
<path d="M25.8752 35.5606C25.8087 35.5606 25.7537 35.5086 25.7502 35.4416C25.7467 35.3726 25.8002 35.3141 25.8687 35.3106C28.0042 35.2061 30.9547 34.2126 32.8867 30.0721C32.9157 30.0096 32.9907 29.9826 33.0527 30.0116C33.1152 30.0406 33.1427 30.1151 33.1132 30.1776C31.5647 33.4961 28.9967 35.4076 25.8812 35.5601C25.8792 35.5606 25.8772 35.5606 25.8752 35.5606Z" fill="#472B29"/>
<path d="M24.4999 35.5141C24.4954 35.5141 24.4904 35.5141 24.4859 35.5131C22.8849 35.3296 21.2439 34.6906 19.8654 33.7146C19.8094 33.6746 19.7954 33.5966 19.8354 33.5401C19.8754 33.4836 19.9534 33.4706 20.0099 33.5101C21.3544 34.4626 22.9544 35.0851 24.5144 35.2641C24.5834 35.2721 24.6319 35.3341 24.6244 35.4026C24.6164 35.4671 24.5629 35.5141 24.4999 35.5141Z" fill="#472B29"/>
<path d="M18.9375 32.9271C18.907 32.9271 18.8765 32.9161 18.8525 32.8936C18.1635 32.2546 17.609 31.5536 17.2025 30.8096C17.17 30.7491 17.192 30.6731 17.2525 30.6401C17.3125 30.6076 17.3885 30.6291 17.4225 30.6901C17.8155 31.4101 18.3535 32.0901 19.0225 32.7106C19.0735 32.7576 19.076 32.8366 19.0295 32.8871C19.0045 32.9136 18.971 32.9271 18.9375 32.9271Z" fill="#472B29"/>
</svg>
